<?xml version="1.0" standalone="no"?>
<!DOCTYPE svg PUBLIC "-//W3C//DTD SVG 20010904//EN"
 "http://www.w3.org/TR/2001/REC-SVG-20010904/DTD/svg10.dtd">
<svg version="1.0" xmlns="http://www.w3.org/2000/svg"
 width="475.000000pt" height="441.000000pt" viewBox="0 0 475.000000 441.000000"
 preserveAspectRatio="xMidYMid meet">

<g transform="translate(0.000000,441.000000) scale(0.100000,-0.100000)"
fill="#000000" stroke="none">
<path d="M0 3975 l1 -435 22 1 c12 0 16 3 9 6 -9 4 -7 10 8 23 15 13 17 19 8
23 -7 3 -2 6 12 7 14 1 19 4 12 7 -8 3 -2 15 19 34 17 16 26 29 19 29 -19 0
16 30 37 31 11 0 13 3 5 6 -9 4 -7 10 8 23 15 13 17 19 8 23 -7 3 -2 6 12 6
20 1 22 3 10 11 -12 8 -10 10 10 11 14 0 19 3 12 6 -9 4 -7 10 8 23 15 13 17
19 8 23 -8 3 -6 6 5 6 25 1 51 28 34 34 -7 3 -4 6 6 6 25 1 51 28 34 34 -7 3
-4 6 6 6 25 1 51 28 34 34 -7 3 -4 6 6 6 25 1 51 28 34 34 -7 3 -4 6 6 6 25 1
51 28 34 34 -7 3 -4 6 6 6 25 1 51 28 34 34 -6 3 -2 6 11 6 12 1 22 6 22 11 0
6 10 10 23 10 18 0 19 2 7 10 -12 8 -10 10 10 10 20 0 22 2 10 10 -13 8 -12
10 3 10 25 0 52 26 34 33 -6 3 -2 6 11 6 12 1 22 6 22 11 0 6 10 10 23 10 18
0 19 2 7 10 -12 8 -11 10 8 10 12 0 22 5 22 10 0 6 10 10 23 10 18 0 19 2 7
10 -13 8 -12 10 3 10 25 0 52 26 34 33 -6 3 4 6 23 6 26 1 31 4 20 11 -11 7
-6 10 20 10 26 0 31 3 20 10 -12 8 -11 10 8 10 12 0 22 5 22 10 0 6 10 10 23
11 21 1 21 1 -3 9 -24 8 -23 8 8 9 17 1 32 5 32 10 0 5 10 12 23 14 12 2 -195
5 -461 6 l-482 1 0 -435z"/>
<path d="M1003 4403 c9 -2 23 -2 30 0 6 3 -1 5 -18 5 -16 0 -22 -2 -12 -5z"/>
<path d="M3628 4403 c12 -2 22 -9 22 -14 0 -5 7 -9 16 -9 14 0 14 2 0 15 -8 8
-25 14 -38 14 l-23 -2 23 -4z"/>
<path d="M3708 4403 c12 -2 22 -9 22 -14 0 -5 10 -9 23 -9 18 0 19 -2 7 -10
-11 -7 -6 -10 20 -10 26 0 31 -3 20 -10 -11 -7 -6 -10 20 -10 26 0 31 -3 20
-10 -12 -8 -10 -10 10 -10 20 0 22 -2 10 -10 -11 -7 -6 -10 20 -10 26 0 31 -3
20 -10 -12 -8 -10 -10 10 -10 20 0 22 -2 10 -10 -12 -8 -10 -10 10 -10 20 0
22 -2 10 -10 -12 -8 -11 -10 8 -10 12 0 22 -4 22 -10 0 -5 10 -10 23 -10 18 0
19 -2 7 -10 -12 -8 -11 -10 8 -10 12 0 22 -4 22 -10 0 -5 10 -10 23 -10 18 0
19 -2 7 -10 -12 -8 -10 -10 10 -10 20 0 22 -2 10 -10 -12 -8 -10 -10 10 -10
20 0 22 -2 10 -10 -12 -8 -10 -10 10 -10 20 0 22 -2 10 -10 -12 -8 -11 -10 8
-10 12 0 22 -4 22 -10 0 -5 10 -10 23 -11 12 0 16 -3 10 -6 -18 -7 9 -33 34
-33 15 0 16 -2 3 -10 -12 -8 -10 -10 10 -10 20 0 22 -2 10 -10 -12 -8 -10 -10
10 -10 20 0 22 -2 10 -10 -12 -8 -10 -10 10 -10 20 0 22 -2 10 -10 -12 -8 -10
-10 10 -10 20 0 22 -2 10 -10 -12 -8 -10 -10 10 -10 20 0 22 -2 10 -10 -12 -8
-10 -10 10 -11 14 0 19 -3 13 -6 -17 -6 9 -33 34 -34 10 0 13 -3 5 -6 -8 -3
-2 -14 18 -33 20 -19 26 -30 18 -33 -7 -3 -2 -6 12 -6 20 -1 22 -3 10 -11 -12
-8 -10 -10 10 -10 20 0 22 -2 10 -10 -12 -8 -10 -10 10 -11 14 0 19 -3 12 -6
-9 -4 -7 -10 8 -23 15 -13 17 -19 8 -23 -8 -3 -6 -6 5 -6 21 -1 56 -31 37 -31
-7 0 2 -13 19 -29 21 -19 27 -31 19 -34 -7 -3 -2 -6 12 -7 14 -1 19 -4 12 -7
-9 -4 -7 -10 8 -23 15 -13 17 -19 8 -23 -7 -3 -2 -6 12 -7 14 -1 19 -4 12 -7
-9 -4 -7 -10 8 -23 15 -13 17 -19 8 -23 -7 -3 -2 -6 12 -7 14 -1 19 -4 12 -7
-9 -3 -7 -10 9 -24 13 -11 17 -19 9 -19 -7 0 -3 -9 10 -20 13 -11 18 -20 11
-20 -9 0 -8 -5 3 -15 8 -8 17 -15 20 -15 2 0 5 236 6 525 l1 525 -533 -1
c-293 -1 -523 -4 -510 -6z"/>
<path d="M978 4383 c7 -3 16 -2 19 1 4 3 -2 6 -13 5 -11 0 -14 -3 -6 -6z"/>
<path d="M923 4363 c9 -2 23 -2 30 0 6 3 -1 5 -18 5 -16 0 -22 -2 -12 -5z"/>
<path d="M3703 4363 c9 -2 23 -2 30 0 6 3 -1 5 -18 5 -16 0 -22 -2 -12 -5z"/>
<path d="M898 4343 c7 -3 16 -2 19 1 4 3 -2 6 -13 5 -11 0 -14 -3 -6 -6z"/>
<path d="M3738 4343 c7 -3 16 -2 19 1 4 3 -2 6 -13 5 -11 0 -14 -3 -6 -6z"/>
<path d="M842 4315 c-11 -12 -10 -15 3 -15 8 0 15 4 15 9 0 5 10 12 23 14 21
4 20 4 -3 5 -14 1 -31 -5 -38 -13z"/>
<path d="M3763 4323 c9 -2 23 -2 30 0 6 3 -1 5 -18 5 -16 0 -22 -2 -12 -5z"/>
<path d="M3798 4303 c7 -3 16 -2 19 1 4 3 -2 6 -13 5 -11 0 -14 -3 -6 -6z"/>
<path d="M782 4275 c-11 -12 -10 -15 3 -15 8 0 15 4 15 9 0 5 10 12 23 14 21
4 20 4 -3 5 -14 1 -31 -5 -38 -13z"/>
<path d="M3828 4283 c12 -2 22 -9 22 -14 0 -5 7 -9 16 -9 14 0 14 2 0 15 -8 8
-25 14 -38 14 l-23 -2 23 -4z"/>
<path d="M722 4235 c-11 -12 -10 -15 3 -15 8 0 15 4 15 9 0 5 10 12 23 14 21
4 20 4 -3 5 -14 1 -31 -5 -38 -13z"/>
<path d="M3883 4243 c9 -2 23 -2 30 0 6 3 -1 5 -18 5 -16 0 -22 -2 -12 -5z"/>
<path d="M3918 4223 c7 -3 16 -2 19 1 4 3 -2 6 -13 5 -11 0 -14 -3 -6 -6z"/>
<path d="M683 4203 c9 -2 23 -2 30 0 6 3 -1 5 -18 5 -16 0 -22 -2 -12 -5z"/>
<path d="M3943 4203 c9 -2 23 -2 30 0 6 3 -1 5 -18 5 -16 0 -22 -2 -12 -5z"/>
<path d="M658 4183 c7 -3 16 -2 19 1 4 3 -2 6 -13 5 -11 0 -14 -3 -6 -6z"/>
<path d="M3978 4183 c7 -3 16 -2 19 1 4 3 -2 6 -13 5 -11 0 -14 -3 -6 -6z"/>
<path d="M638 4163 c7 -3 16 -2 19 1 4 3 -2 6 -13 5 -11 0 -14 -3 -6 -6z"/>
<path d="M4004 4155 c8 -8 20 -15 26 -15 7 0 6 6 -4 15 -8 8 -20 15 -26 15 -7
0 -6 -6 4 -15z"/>
<path d="M618 4143 c7 -3 16 -2 19 1 4 3 -2 6 -13 5 -11 0 -14 -3 -6 -6z"/>
<path d="M563 4103 c9 -2 23 -2 30 0 6 3 -1 5 -18 5 -16 0 -22 -2 -12 -5z"/>
<path d="M4068 4103 c12 -2 22 -9 22 -14 0 -5 7 -9 16 -9 14 0 14 2 0 15 -8 8
-25 14 -38 14 l-23 -2 23 -4z"/>
<path d="M538 4083 c7 -3 16 -2 19 1 4 3 -2 6 -13 5 -11 0 -14 -3 -6 -6z"/>
<path d="M518 4063 c7 -3 16 -2 19 1 4 3 -2 6 -13 5 -11 0 -14 -3 -6 -6z"/>
<path d="M4124 4055 c8 -8 20 -15 26 -15 7 0 6 6 -4 15 -8 8 -20 15 -26 15 -7
0 -6 -6 4 -15z"/>
<path d="M498 4043 c7 -3 16 -2 19 1 4 3 -2 6 -13 5 -11 0 -14 -3 -6 -6z"/>
<path d="M478 4023 c7 -3 16 -2 19 1 4 3 -2 6 -13 5 -11 0 -14 -3 -6 -6z"/>
<path d="M4158 4023 c7 -3 16 -2 19 1 4 3 -2 6 -13 5 -11 0 -14 -3 -6 -6z"/>
<path d="M458 4003 c7 -3 16 -2 19 1 4 3 -2 6 -13 5 -11 0 -14 -3 -6 -6z"/>
<path d="M4178 4003 c7 -3 16 -2 19 1 4 3 -2 6 -13 5 -11 0 -14 -3 -6 -6z"/>
<path d="M423 3983 c9 -2 23 -2 30 0 6 3 -1 5 -18 5 -16 0 -22 -2 -12 -5z"/>
<path d="M4198 3983 c6 -2 18 -2 25 0 6 3 1 5 -13 5 -14 0 -19 -2 -12 -5z"/>
<path d="M418 3963 c7 -3 16 -2 19 1 4 3 -2 6 -13 5 -11 0 -14 -3 -6 -6z"/>
<path d="M4218 3963 c7 -3 16 -2 19 1 4 3 -2 6 -13 5 -11 0 -14 -3 -6 -6z"/>
<path d="M388 3943 c6 -2 18 -2 25 0 6 3 1 5 -13 5 -14 0 -19 -2 -12 -5z"/>
<path d="M4238 3943 c6 -2 18 -2 25 0 6 3 1 5 -13 5 -14 0 -19 -2 -12 -5z"/>
<path d="M4258 3923 c7 -3 16 -2 19 1 4 3 -2 6 -13 5 -11 0 -14 -3 -6 -6z"/>
<path d="M343 3903 c9 -2 23 -2 30 0 6 3 -1 5 -18 5 -16 0 -22 -2 -12 -5z"/>
<path d="M4278 3903 c6 -2 18 -2 25 0 6 3 1 5 -13 5 -14 0 -19 -2 -12 -5z"/>
<path d="M338 3883 c7 -3 16 -2 19 1 4 3 -2 6 -13 5 -11 0 -14 -3 -6 -6z"/>
<path d="M4298 3883 c7 -3 16 -2 19 1 4 3 -2 6 -13 5 -11 0 -14 -3 -6 -6z"/>
<path d="M318 3863 c7 -3 16 -2 19 1 4 3 -2 6 -13 5 -11 0 -14 -3 -6 -6z"/>
<path d="M4318 3863 c7 -3 16 -2 19 1 4 3 -2 6 -13 5 -11 0 -14 -3 -6 -6z"/>
<path d="M3825 3852 c-4 -4 -12 -7 -18 -7 -15 0 -21 -31 -11 -53 9 -22 7 -39
-12 -83 -16 -37 -57 -63 -114 -72 -19 -3 -16 -5 10 -6 62 -2 159 63 179 120
13 38 -4 38 -23 1 -8 -16 -21 -34 -29 -41 -25 -20 5 55 31 80 12 11 22 28 22
38 0 20 -23 35 -35 23z"/>
<path d="M298 3843 c7 -3 16 -2 19 1 4 3 -2 6 -13 5 -11 0 -14 -3 -6 -6z"/>
<path d="M4338 3843 c7 -3 16 -2 19 1 4 3 -2 6 -13 5 -11 0 -14 -3 -6 -6z"/>
<path d="M1686 3833 c-3 -4 -20 -8 -37 -9 -45 -3 -91 -12 -209 -41 -58 -14
-109 -26 -115 -28 -5 -1 -23 -7 -38 -13 -16 -7 -34 -12 -42 -12 -8 0 -17 -5
-20 -10 -4 -6 -10 -8 -15 -5 -4 3 -13 -2 -20 -10 -7 -8 -17 -15 -22 -15 -20 0
-67 -41 -82 -71 -13 -27 -13 -33 -1 -45 7 -8 21 -14 30 -14 14 0 13 -4 -6 -19
-22 -18 -22 -20 -7 -43 13 -19 14 -28 5 -37 -6 -6 -7 -11 -1 -11 5 0 2 -4 -6
-10 -12 -7 -12 -11 3 -28 10 -11 31 -22 46 -25 16 -3 35 -12 43 -20 20 -21 62
-14 168 26 52 19 129 44 170 55 83 22 130 40 115 43 -5 1 3 4 20 8 35 7 59 46
44 73 -7 14 -6 18 6 18 11 0 15 11 15 44 0 25 -5 46 -12 48 -16 6 -19 39 -6
56 9 10 8 16 -3 23 -8 5 -9 9 -4 9 16 0 16 40 -1 47 -7 3 -11 9 -8 14 6 11 0
12 -10 2z m-271 -145 l26 -12 -30 -12 c-16 -7 -37 -24 -46 -38 -15 -22 -15
-31 -5 -56 15 -35 44 -46 84 -30 16 6 31 8 34 5 9 -9 -49 -63 -74 -69 -32 -8
-89 17 -105 45 -30 58 -7 142 46 165 37 16 39 17 70 2z m120 -63 c0 -14 -4
-25 -9 -25 -5 0 -15 -8 -22 -17 -13 -17 -13 -17 -14 0 0 9 -7 17 -15 17 -18 0
-19 4 -3 30 7 11 24 20 38 20 20 0 25 -5 25 -25z"/>
<path d="M278 3823 c7 -3 16 -2 19 1 4 3 -2 6 -13 5 -11 0 -14 -3 -6 -6z"/>
<path d="M4364 3815 c8 -8 20 -15 26 -15 7 0 6 6 -4 15 -8 8 -20 15 -26 15 -7
0 -6 -6 4 -15z"/>
<path d="M258 3803 c7 -3 16 -2 19 1 4 3 -2 6 -13 5 -11 0 -14 -3 -6 -6z"/>
<path d="M238 3783 c7 -3 16 -2 19 1 4 3 -2 6 -13 5 -11 0 -14 -3 -6 -6z"/>
<path d="M4404 3775 c8 -8 17 -15 20 -15 3 0 3 7 0 15 -4 8 -13 15 -21 15 -12
0 -12 -2 1 -15z"/>
<path d="M208 3743 c6 -2 18 -2 25 0 6 3 1 5 -13 5 -14 0 -19 -2 -12 -5z"/>
<path d="M4423 3743 c9 -2 23 -2 30 0 6 3 -1 5 -18 5 -16 0 -22 -2 -12 -5z"/>
<path d="M162 3695 c-17 -20 5 -20 24 0 12 11 12 15 2 15 -7 -1 -19 -7 -26
-15z"/>
<path d="M4458 3703 c7 -3 16 -2 19 1 4 3 -2 6 -13 5 -11 0 -14 -3 -6 -6z"/>
<path d="M4478 3683 c7 -3 16 -2 19 1 4 3 -2 6 -13 5 -11 0 -14 -3 -6 -6z"/>
<path d="M138 3663 c7 -3 16 -2 19 1 4 3 -2 6 -13 5 -11 0 -14 -3 -6 -6z"/>
<path d="M4498 3663 c7 -3 16 -2 19 1 4 3 -2 6 -13 5 -11 0 -14 -3 -6 -6z"/>
<path d="M118 3623 c7 -3 16 -2 19 1 4 3 -2 6 -13 5 -11 0 -14 -3 -6 -6z"/>
<path d="M3509 3615 c-33 -18 -49 -53 -37 -84 12 -33 24 -15 27 39 1 22 39 43
91 51 l45 6 -50 1 c-27 1 -62 -5 -76 -13z"/>
<path d="M4518 3623 c7 -3 16 -2 19 1 4 3 -2 6 -13 5 -11 0 -14 -3 -6 -6z"/>
<path d="M98 3603 c7 -3 16 -2 19 1 4 3 -2 6 -13 5 -11 0 -14 -3 -6 -6z"/>
<path d="M4538 3603 c7 -3 16 -2 19 1 4 3 -2 6 -13 5 -11 0 -14 -3 -6 -6z"/>
<path d="M83 3583 c9 -2 23 -2 30 0 6 3 -1 5 -18 5 -16 0 -22 -2 -12 -5z"/>
<path d="M4543 3583 c9 -2 23 -2 30 0 6 3 -1 5 -18 5 -16 0 -22 -2 -12 -5z"/>
<path d="M2053 3561 c-12 -6 -40 -21 -62 -35 -29 -19 -54 -26 -90 -26 -42 0
-52 -4 -68 -26 -13 -17 -37 -30 -71 -39 -28 -8 -67 -25 -85 -39 -19 -14 -38
-26 -44 -26 -6 0 -24 -15 -40 -32 -17 -18 -47 -51 -68 -73 -40 -43 -58 -73
-70 -120 -5 -16 -10 -34 -11 -40 -2 -5 -10 -44 -19 -85 -17 -88 -84 -235 -99
-220 -15 15 -36 12 -36 -4 0 -7 10 -20 22 -28 l22 -15 -27 -65 c-51 -120 -116
-151 -164 -79 -22 32 -23 33 -23 9 0 -28 33 -62 69 -71 28 -7 74 14 94 43 14
20 15 20 21 -14 4 -20 14 -52 22 -72 13 -31 17 -34 31 -23 8 7 18 22 22 33 5
13 15 -9 31 -78 15 -61 20 -100 14 -104 -18 -13 -40 -56 -58 -112 -31 -97
-115 -255 -165 -309 -51 -56 -46 -70 19 -51 37 11 50 6 32 -12 -33 -33 5 -37
63 -8 44 22 55 19 36 -12 -13 -20 -12 -21 25 -15 21 4 52 16 68 28 l29 22 -5
-27 c-5 -23 -3 -26 16 -20 11 3 38 19 58 35 20 16 39 29 41 29 2 0 3 -11 2
-25 -2 -17 2 -25 12 -25 18 0 73 57 73 76 0 7 17 22 38 33 l38 19 24 -46 c13
-26 47 -88 76 -137 68 -117 85 -163 145 -379 27 -99 55 -186 62 -195 14 -16
104 -58 142 -65 47 -9 60 -17 82 -52 20 -31 21 -35 6 -41 -9 -4 -18 -2 -21 5
-2 6 -10 8 -18 5 -8 -3 -14 0 -14 7 0 6 -6 10 -12 7 -7 -2 -24 5 -37 17 -13
11 -21 15 -17 9 4 -8 1 -13 -8 -13 -8 0 -16 3 -18 8 -1 4 -24 18 -51 31 -26
13 -57 34 -70 46 -12 12 -40 35 -62 51 l-40 29 21 -27 c12 -15 61 -57 110 -94
49 -37 103 -79 119 -93 17 -14 48 -39 69 -56 22 -16 56 -43 77 -60 22 -16 52
-40 68 -52 18 -15 27 -30 25 -40 -3 -12 6 -25 26 -38 33 -22 38 -40 15 -49
-23 -8 -2 -44 30 -52 14 -3 25 -10 25 -14 0 -14 -24 -18 -50 -8 -16 6 -26 6
-28 -1 -2 -6 -17 -11 -33 -11 -20 0 -28 4 -23 11 4 7 1 10 -6 7 -8 -2 -22 4
-33 15 -16 16 -17 21 -6 29 10 7 8 8 -9 5 -17 -4 -22 -2 -18 8 2 7 -2 19 -10
25 -9 9 -14 9 -14 2 0 -6 -7 -9 -15 -6 -25 10 -40 -7 -20 -23 17 -12 17 -13 2
-13 -10 0 -34 -18 -54 -40 -21 -22 -43 -40 -49 -40 -7 0 -16 -9 -19 -20 -3
-11 -13 -20 -21 -20 -8 0 -13 -4 -10 -9 3 -5 -1 -14 -9 -21 -8 -7 -15 -19 -15
-26 0 -8 -6 -14 -12 -14 -30 -1 28 -22 99 -37 56 -11 136 -16 278 -17 220 0
308 13 504 76 292 93 569 286 762 530 l30 37 -100 101 c-58 58 -109 100 -120
100 -11 0 -30 14 -43 30 -22 29 -91 104 -184 200 -24 25 -53 67 -64 93 -12 27
-28 51 -36 54 -37 14 -1 149 68 257 21 33 38 67 38 76 0 13 7 16 31 12 29 -4
30 -3 19 18 -16 29 -9 33 26 15 47 -24 125 -15 84 10 -27 17 -4 24 58 18 l67
-6 -24 26 -24 26 35 -5 c22 -4 46 -1 64 9 l29 15 -40 8 c-31 5 -55 23 -120 88
-44 45 -107 120 -139 169 -53 80 -76 105 -120 132 -13 8 -19 33 -24 107 l-7
96 -59 -24 c-65 -28 -101 -26 -151 9 -72 51 -97 95 -103 181 -4 62 -1 75 17
98 14 17 36 30 59 34 88 16 155 59 122 79 -6 4 -8 10 -5 15 8 13 -24 60 -40
60 -8 0 -26 19 -42 42 -16 24 -38 47 -50 53 -11 6 -27 16 -34 22 -8 6 -33 17
-56 24 -24 6 -43 16 -43 20 0 11 -184 119 -203 119 -9 0 -47 12 -84 26 -51 19
-99 28 -192 34 -68 5 -153 11 -190 14 -36 3 -76 2 -88 -3z m-48 -130 c3 -5 1
-12 -5 -16 -5 -3 -10 1 -10 9 0 18 6 21 15 7z m75 -11 c0 -5 -4 -10 -10 -10
-5 0 -10 5 -10 10 0 6 5 10 10 10 6 0 10 -4 10 -10z m-379 -387 c13 -15 12
-15 -8 -4 -24 12 -29 21 -14 21 5 0 15 -7 22 -17z m309 5 c8 0 26 3 39 8 17 5
22 4 17 -4 -9 -16 26 -16 41 -1 8 8 15 5 25 -12 7 -13 22 -25 33 -26 11 -1 40
-4 65 -7 25 -3 45 -5 45 -6 0 -1 21 -3 46 -5 26 -1 55 -7 65 -13 15 -8 14 -10
-12 -16 -134 -28 -261 -29 -389 -2 -38 8 -94 17 -123 21 -35 5 -55 13 -62 25
-8 14 -5 17 15 14 14 -1 27 2 30 6 3 5 12 7 20 4 8 -4 28 -1 45 4 18 7 32 7
35 1 10 -16 28 -10 21 7 -5 13 -2 14 11 9 10 -4 25 -8 33 -7z m-577 -107 c-4
-16 3 -21 47 -30 28 -6 73 -11 100 -11 74 0 102 -40 103 -149 1 -84 -54 -177
-119 -202 -24 -9 -101 -5 -146 7 -5 1 -12 2 -18 3 -5 0 -10 9 -10 19 0 10 -11
41 -25 68 l-26 49 33 103 32 103 21 -66 c12 -36 29 -74 39 -83 13 -13 11 -3
-8 38 -26 58 -43 141 -31 159 10 17 14 13 8 -8z m1357 -133 c95 -31 161 -136
114 -182 -32 -33 -64 -16 -99 54 -21 41 -50 69 -79 75 -59 11 -82 12 -125 0
-104 -27 -163 -80 -230 -206 l-42 -79 -38 47 c-101 128 -232 189 -347 164 -71
-16 -110 -50 -128 -111 -20 -67 -34 -90 -54 -90 -53 0 -71 63 -37 134 35 73
139 125 263 131 106 5 200 -35 285 -119 l44 -45 18 39 c20 44 94 130 112 130
7 0 16 6 20 14 4 7 37 23 73 34 36 12 72 23 80 26 22 7 130 -3 170 -16z m-122
-147 c15 -1 52 -59 52 -82 0 -48 -73 -75 -106 -38 -9 10 -14 25 -11 34 8 20
-15 20 -59 -1 -39 -19 -83 -82 -145 -206 -24 -49 -46 -88 -49 -88 -4 0 -38 40
-78 89 -92 115 -172 172 -221 156 -13 -4 -17 -12 -14 -29 4 -18 -2 -29 -20
-41 -34 -22 -72 -11 -87 25 -34 81 62 140 172 107 25 -8 54 -21 63 -28 67 -55
110 -104 144 -168 l39 -74 11 55 c15 71 60 165 102 213 40 46 121 86 164 81
16 -2 36 -4 43 -5z m527 -190 c43 -27 85 -67 146 -141 64 -78 66 -79 103 -108
l28 -22 -25 -9 c-51 -20 -231 -39 -282 -31 -63 10 -103 28 -107 49 -3 14 28
183 47 254 9 33 45 37 90 8z m-1667 -86 c-3 -3 -9 2 -12 12 -6 14 -5 15 5 6 7
-7 10 -15 7 -18z m112 -212 l68 -131 -25 -22 c-52 -45 -175 -75 -326 -79 -64
-2 -63 -3 -21 54 12 17 45 76 73 132 51 99 127 189 153 181 5 -2 41 -63 78
-135z m794 -435 c18 -76 13 -100 -18 -96 -21 3 -24 25 -18 153 3 44 18 19 36
-57z m63 -459 c7 -13 14 -31 16 -40 4 -13 15 -14 68 -8 35 4 66 6 68 4 11 -12
-27 -71 -62 -96 -55 -40 -112 -46 -172 -20 -42 18 -94 67 -88 81 2 3 29 7 60
10 58 5 58 5 61 40 5 67 25 78 49 29z m552 -51 c1 -5 -4 -8 -9 -8 -15 0 -32
50 -24 69 5 12 10 7 19 -19 8 -19 14 -38 14 -42z"/>
<path d="M46 3535 c-3 -8 -3 -15 0 -15 3 0 12 7 20 15 13 13 13 15 1 15 -8 0
-17 -7 -21 -15z"/>
<path d="M4578 3543 c7 -3 16 -2 19 1 4 3 -2 6 -13 5 -11 0 -14 -3 -6 -6z"/>
<path d="M38 3503 c7 -3 16 -2 19 1 4 3 -2 6 -13 5 -11 0 -14 -3 -6 -6z"/>
<path d="M4598 3503 c7 -3 16 -2 19 1 4 3 -2 6 -13 5 -11 0 -14 -3 -6 -6z"/>
<path d="M18 3483 c7 -3 16 -2 19 1 4 3 -2 6 -13 5 -11 0 -14 -3 -6 -6z"/>
<path d="M4618 3483 c7 -3 16 -2 19 1 4 3 -2 6 -13 5 -11 0 -14 -3 -6 -6z"/>
<path d="M519 3454 c-10 -13 16 -54 35 -54 16 0 50 -49 41 -58 -4 -4 -17 5
-29 21 -24 30 -36 34 -36 14 0 -43 109 -88 209 -85 l66 1 -83 6 c-56 5 -86 12
-93 21 -24 36 -48 88 -42 93 3 3 3 17 -1 30 -4 19 -12 25 -32 23 -14 0 -30 -6
-35 -12z"/>
<path d="M4638 3463 c7 -3 16 -2 19 1 4 3 -2 6 -13 5 -11 0 -14 -3 -6 -6z"/>
<path d="M4658 3423 c7 -3 16 -2 19 1 4 3 -2 6 -13 5 -11 0 -14 -3 -6 -6z"/>
<path d="M3550 3380 c-24 -24 -25 -43 -5 -64 8 -8 15 -21 15 -29 0 -22 -21
-77 -29 -77 -4 0 -50 32 -101 70 -51 39 -101 70 -109 69 -14 0 -14 -1 -1 -6 8
-3 30 -19 48 -36 27 -26 31 -36 26 -63 -12 -64 16 -124 57 -124 15 0 19 5 16
18 -3 9 -8 34 -11 54 l-7 37 58 -35 c31 -18 68 -35 82 -35 14 -1 36 -3 49 -4
50 -5 117 91 93 133 -6 10 -11 1 -19 -30 -16 -63 -40 -82 -98 -75 -25 2 -50 9
-54 13 -13 13 9 95 31 120 25 27 24 61 -1 74 -15 8 -24 6 -40 -10z"/>
<path d="M4684 3375 c8 -8 17 -15 20 -15 3 0 3 7 0 15 -4 8 -13 15 -21 15 -12
0 -12 -2 1 -15z"/>
<path d="M4698 3343 c7 -3 16 -2 19 1 4 3 -2 6 -13 5 -11 0 -14 -3 -6 -6z"/>
<path d="M3277 3323 c-10 -9 -9 -51 1 -57 5 -3 8 11 8 29 -1 19 -1 35 -2 35 0
0 -4 -3 -7 -7z"/>
<path d="M4718 3323 c7 -3 16 -2 19 1 4 3 -2 6 -13 5 -11 0 -14 -3 -6 -6z"/>
<path d="M840 3310 c-22 -7 -21 -8 12 -9 60 -2 88 -17 95 -51 3 -19 9 -28 15
-22 16 16 -3 62 -33 77 -30 16 -51 17 -89 5z"/>
<path d="M4718 3303 c7 -3 16 -2 19 1 4 3 -2 6 -13 5 -11 0 -14 -3 -6 -6z"/>
<path d="M3105 3058 c0 -40 -3 -89 -7 -108 -6 -29 -6 -31 4 -16 6 11 13 50 16
87 l5 68 59 -94 c50 -80 57 -98 48 -115 -28 -52 -18 -131 21 -166 28 -25 40
-8 41 64 l1 60 31 -19 c45 -28 82 -24 117 11 31 30 37 69 12 77 -7 3 -9 -3 -6
-16 7 -29 -38 -71 -68 -64 -38 10 -75 40 -114 93 -36 49 -37 51 -20 76 13 20
14 29 5 38 -8 8 -14 7 -21 -7 -9 -15 -17 -10 -61 43 -28 33 -54 60 -57 60 -3
0 -6 -33 -6 -72z"/>
<path d="M1135 3092 c-6 -4 -22 -23 -35 -42 -38 -56 -111 -140 -121 -140 -6 0
-18 19 -29 42 -14 32 -16 45 -7 59 8 13 8 24 -1 44 -10 21 -18 26 -40 23 -23
-3 -27 -8 -27 -33 0 -20 6 -33 20 -39 11 -5 32 -33 46 -61 l26 -52 -26 -16
c-60 -35 -113 -23 -141 33 -25 49 -42 53 -29 8 11 -43 62 -88 97 -88 38 0 99
34 150 83 l42 41 0 -57 c0 -50 2 -57 20 -57 37 0 50 58 29 131 -10 32 -9 42 8
71 15 25 26 33 49 33 24 0 30 -4 32 -28 3 -27 22 -29 22 -1 0 34 -58 66 -85
46z"/>
<path d="M3296 3028 c-9 -12 -16 -31 -16 -41 0 -14 -5 -17 -22 -12 -23 7 -23
7 -2 -8 11 -9 33 -19 48 -23 15 -3 30 -12 32 -19 8 -19 42 -25 55 -9 19 23 -7
44 -53 44 -40 0 -40 0 -19 18 26 22 32 65 9 70 -9 2 -23 -7 -32 -20z"/>
<path d="M1212 2797 c-13 -17 0 -47 27 -61 22 -12 21 -13 -18 -25 -34 -10 -41
-16 -41 -37 0 -21 4 -25 23 -22 12 2 26 13 32 26 5 12 14 22 20 22 5 0 21 10
35 21 14 11 18 19 10 16 -9 -2 -20 7 -27 24 -14 34 -47 54 -61 36z"/>
<path d="M4022 2265 c0 -16 2 -22 5 -12 2 9 2 23 0 30 -3 6 -5 -1 -5 -18z"/>
<path d="M1777 1383 c-4 -3 -7 -16 -7 -28 0 -18 -14 -29 -75 -55 -41 -18 -80
-38 -86 -46 -5 -7 -25 -16 -42 -20 -18 -3 -36 -10 -42 -14 -5 -4 -28 -13 -50
-20 -51 -17 -223 -114 -254 -145 l-25 -24 40 -48 c102 -120 313 -278 483 -360
77 -37 250 -103 270 -103 3 0 -9 15 -26 32 -54 57 -216 311 -240 376 -29 80
-40 186 -23 236 6 20 28 58 48 84 26 35 36 58 39 94 3 48 2 54 -10 41z"/>
<path d="M4730 715 c0 -8 2 -15 4 -15 2 0 6 7 10 15 3 8 1 15 -4 15 -6 0 -10
-7 -10 -15z"/>
<path d="M4718 683 c7 -3 16 -2 19 1 4 3 -2 6 -13 5 -11 0 -14 -3 -6 -6z"/>
<path d="M4698 663 c7 -3 16 -2 19 1 4 3 -2 6 -13 5 -11 0 -14 -3 -6 -6z"/>
<path d="M4682 635 c-10 -12 -10 -15 2 -15 7 0 16 7 20 15 7 19 -5 19 -22 0z"/>
<path d="M4730 632 c0 -10 -9 -24 -20 -32 -14 -10 -16 -16 -7 -22 8 -5 3 -8
-13 -8 -20 0 -22 -2 -10 -10 13 -9 13 -10 0 -10 -13 0 -13 -1 0 -10 12 -8 10
-10 -10 -11 -14 0 -19 -3 -12 -6 9 -4 7 -10 -8 -23 -15 -13 -17 -19 -8 -23 7
-3 2 -6 -12 -7 -14 -1 -19 -4 -12 -7 9 -4 7 -10 -8 -23 -15 -13 -17 -19 -8
-23 7 -3 2 -6 -12 -7 -14 -1 -19 -4 -12 -7 9 -4 7 -10 -8 -23 -15 -13 -17 -19
-8 -23 7 -3 2 -6 -12 -6 -20 -1 -22 -3 -10 -11 12 -8 10 -10 -10 -11 -14 0
-19 -3 -12 -6 8 -3 2 -14 -18 -33 -20 -19 -26 -30 -18 -33 7 -3 2 -6 -12 -6
-20 -1 -22 -3 -10 -11 12 -8 10 -10 -10 -10 -20 0 -22 -2 -10 -10 12 -8 10
-10 -10 -11 -14 0 -19 -3 -13 -6 18 -7 -9 -33 -34 -33 -15 0 -16 -2 -3 -10 13
-9 13 -10 0 -10 -13 0 -13 -1 0 -10 12 -8 10 -10 -10 -10 -20 0 -22 -2 -10
-10 12 -8 10 -10 -10 -10 -20 0 -22 -2 -10 -10 12 -8 10 -10 -10 -10 -20 0
-22 -2 -10 -10 12 -8 10 -10 -10 -10 -20 0 -22 -2 -10 -10 12 -8 10 -10 -10
-10 -20 0 -22 -2 -10 -10 12 -8 10 -10 -10 -10 -19 0 -21 -3 -11 -9 11 -7 9
-10 -10 -14 -13 -2 94 -5 239 -6 l262 -1 0 325 c-1 199 -5 325 -10 325 -6 0
-10 -8 -10 -18z"/>
<path d="M4658 603 c7 -3 16 -2 19 1 4 3 -2 6 -13 5 -11 0 -14 -3 -6 -6z"/>
<path d="M4658 583 c7 -3 16 -2 19 1 4 3 -2 6 -13 5 -11 0 -14 -3 -6 -6z"/>
<path d="M4638 563 c7 -3 16 -2 19 1 4 3 -2 6 -13 5 -11 0 -14 -3 -6 -6z"/>
<path d="M18 523 c7 -3 16 -2 19 1 4 3 -2 6 -13 5 -11 0 -14 -3 -6 -6z"/>
<path d="M4618 523 c7 -3 16 -2 19 1 4 3 -2 6 -13 5 -11 0 -14 -3 -6 -6z"/>
<path d="M1 245 l-2 -245 213 1 c117 1 202 4 189 6 -19 4 -21 7 -10 14 10 6 8
9 -11 9 -20 0 -22 2 -10 10 12 8 10 10 -10 11 -14 0 -19 3 -13 6 17 6 -9 33
-34 34 -10 0 -13 3 -6 6 18 7 -9 33 -34 33 -15 0 -16 2 -3 10 13 9 13 10 0 10
-13 0 -13 1 0 10 11 7 6 10 -20 10 -26 0 -31 3 -20 10 13 9 13 10 0 10 -13 0
-13 1 0 10 12 8 10 10 -10 10 -20 0 -22 2 -10 10 12 8 10 10 -10 10 -20 0 -22
2 -10 10 12 8 10 10 -10 11 -14 0 -19 3 -12 6 8 3 2 14 -18 33 -20 19 -26 30
-18 33 7 3 2 6 -12 7 -14 1 -19 4 -12 7 8 3 2 14 -18 33 -20 19 -26 30 -18 33
7 3 2 6 -12 7 -14 1 -19 4 -12 7 9 3 7 10 -9 24 -12 10 -17 19 -10 19 9 0 8 5
-3 15 -8 8 -17 15 -19 15 -3 0 -6 -110 -6 -245z"/>
<path d="M44 475 c8 -8 20 -15 26 -15 7 0 6 6 -4 15 -8 8 -20 15 -26 15 -7 0
-6 -6 4 -15z"/>
<path d="M4579 481 c11 -7 11 -9 0 -14 -11 -4 -11 -6 -1 -6 7 -1 20 6 28 14
14 13 12 15 -13 15 -20 0 -24 -3 -14 -9z"/>
<path d="M78 443 c7 -3 16 -2 19 1 4 3 -2 6 -13 5 -11 0 -14 -3 -6 -6z"/>
<path d="M4558 443 c7 -3 16 -2 19 1 4 3 -2 6 -13 5 -11 0 -14 -3 -6 -6z"/>
<path d="M98 403 c7 -3 16 -2 19 1 4 3 -2 6 -13 5 -11 0 -14 -3 -6 -6z"/>
<path d="M4522 395 c-17 -20 5 -20 24 0 12 11 12 15 2 15 -7 -1 -19 -7 -26
-15z"/>
<path d="M118 383 c7 -3 16 -2 19 1 4 3 -2 6 -13 5 -11 0 -14 -3 -6 -6z"/>
<path d="M138 363 c7 -3 16 -2 19 1 4 3 -2 6 -13 5 -11 0 -14 -3 -6 -6z"/>
<path d="M4498 363 c7 -3 16 -2 19 1 4 3 -2 6 -13 5 -11 0 -14 -3 -6 -6z"/>
<path d="M164 315 c8 -8 20 -15 26 -15 7 0 6 6 -4 15 -8 8 -20 15 -26 15 -7 0
-6 -6 4 -15z"/>
<path d="M4478 323 c7 -3 16 -2 19 1 4 3 -2 6 -13 5 -11 0 -14 -3 -6 -6z"/>
<path d="M4458 303 c7 -3 16 -2 19 1 4 3 -2 6 -13 5 -11 0 -14 -3 -6 -6z"/>
<path d="M198 283 c7 -3 16 -2 19 1 4 3 -2 6 -13 5 -11 0 -14 -3 -6 -6z"/>
<path d="M4438 283 c7 -3 16 -2 19 1 4 3 -2 6 -13 5 -11 0 -14 -3 -6 -6z"/>
<path d="M218 243 c7 -3 16 -2 19 1 4 3 -2 6 -13 5 -11 0 -14 -3 -6 -6z"/>
<path d="M4402 235 c-17 -20 5 -20 24 0 12 11 12 15 2 15 -7 -1 -19 -7 -26
-15z"/>
<path d="M238 223 c7 -3 16 -2 19 1 4 3 -2 6 -13 5 -11 0 -14 -3 -6 -6z"/>
<path d="M258 203 c7 -3 16 -2 19 1 4 3 -2 6 -13 5 -11 0 -14 -3 -6 -6z"/>
<path d="M4362 195 c-17 -20 5 -20 24 0 12 11 12 15 2 15 -7 -1 -19 -7 -26
-15z"/>
<path d="M278 183 c7 -3 16 -2 19 1 4 3 -2 6 -13 5 -11 0 -14 -3 -6 -6z"/>
<path d="M298 163 c7 -3 16 -2 19 1 4 3 -2 6 -13 5 -11 0 -14 -3 -6 -6z"/>
<path d="M4338 163 c7 -3 16 -2 19 1 4 3 -2 6 -13 5 -11 0 -14 -3 -6 -6z"/>
<path d="M318 143 c7 -3 16 -2 19 1 4 3 -2 6 -13 5 -11 0 -14 -3 -6 -6z"/>
<path d="M4318 143 c7 -3 16 -2 19 1 4 3 -2 6 -13 5 -11 0 -14 -3 -6 -6z"/>
<path d="M338 123 c7 -3 16 -2 19 1 4 3 -2 6 -13 5 -11 0 -14 -3 -6 -6z"/>
<path d="M4298 123 c7 -3 16 -2 19 1 4 3 -2 6 -13 5 -11 0 -14 -3 -6 -6z"/>
<path d="M368 83 c6 -2 18 -2 25 0 6 3 1 5 -13 5 -14 0 -19 -2 -12 -5z"/>
<path d="M4263 83 c9 -2 23 -2 30 0 6 3 -1 5 -18 5 -16 0 -22 -2 -12 -5z"/>
<path d="M418 43 c7 -3 16 -2 19 1 4 3 -2 6 -13 5 -11 0 -14 -3 -6 -6z"/>
<path d="M4218 43 c7 -3 16 -2 19 1 4 3 -2 6 -13 5 -11 0 -14 -3 -6 -6z"/>
<path d="M458 3 c7 -3 16 -2 19 1 4 3 -2 6 -13 5 -11 0 -14 -3 -6 -6z"/>
<path d="M4178 3 c7 -3 16 -2 19 1 4 3 -2 6 -13 5 -11 0 -14 -3 -6 -6z"/>
</g>
</svg>
